{"title":"Computer Chess 2013 DVD-R (RLG)","uid":9413542,"size":4678459580,"categoryP":"video","categoryS":"movies_dvdr","magnet":"?xt=urn:btih:d55eb6f628407d0d07083eed1e5c58b3fce0a15e&amp;dn=Computer+Chess+2013+DVD-R+%28RLG%29&amp;tr=udp%3A%2F%2Ftracker.openbittorrent.com%3A80&amp;tr=udp%3A%2F%2Fopen.demonii.com%3A1337&amp;tr=udp%3A%2F%2Ftracker.coppersurfer.tk%3A6969&amp;tr=udp%3A%2F%2Fexodus.desync.com%3A6969","seeders":0,"leechers":2,"uploader":"RedLegsGreaves","files":-1,"time":1388369207,"description":"www.imdb.com/title/tt2007360/\nA 1980s-set story centered around a man vs. machine chess tournament.\n\nLanguages English.\n\nFor Newer Users.\nSimply Drag downloaded folder to your Media Player. This is a NTSC DVD.\nThis is ripped so you would have best quality, menu, bonus/special feature, language options etc.\nNote DVDs may not have have all* features.\n\nScreenshots &lt;a href=&quot;\nhttp://imageshack.com/a/img835/3959/t5rd.jpg&quot; rel=&quot;nofollow&quot; target=&quot;_NEW&quot;&gt;\nhttp://imageshack.com/a/img835/3959/t5rd.jpg&lt;/a&gt; &lt;a href=&quot;\nhttp://imageshack.com/a/img834/2249/m1lp.jpg&quot; rel=&quot;nofollow&quot; target=&quot;_NEW&quot;&gt;\nhttp://imageshack.com/a/img834/2249/m1lp.jpg&lt;/a&gt; &lt;a href=&quot;\nhttp://imageshack.com/a/img28/3673/oshr.jpg&quot; rel=&quot;nofollow&quot; target=&quot;_NEW&quot;&gt;\nhttp://imageshack.com/a/img28/3673/oshr.jpg&lt;/a&gt; &lt;a href=&quot;\nhttp://imageshack.com/a/img713/5521/x6jt.jpg&quot; rel=&quot;nofollow&quot; target=&quot;_NEW&quot;&gt;\nhttp://imageshack.com/a/img713/5521/x6jt.jpg&lt;/a&gt; &lt;a href=&quot;\nhttp://imageshack.com/a/img9/8844/vspt.jpg&quot; rel=&quot;nofollow&quot; target=&quot;_NEW&quot;&gt;\nhttp://imageshack.com/a/img9/8844/vspt.jpg&lt;/a&gt; &lt;a href=&quot;\nhttp://imageshack.com/a/img585/2766/j5l5.jpg&quot; rel=&quot;nofollow&quot; target=&quot;_NEW&quot;&gt;\nhttp://imageshack.com/a/img585/2766/j5l5.jpg&lt;/a&gt; &lt;a href=&quot;\nhttp://imageshack.com/a/img849/495/phr7.jpg&quot; rel=&quot;nofollow&quot; target=&quot;_NEW&quot;&gt;\nhttp://imageshack.com/a/img849/495/phr7.jpg&lt;/a&gt; &lt;a href=&quot;\nhttp://imageshack.com/a/img854/9445/66os.jpg&quot; rel=&quot;nofollow&quot; target=&quot;_NEW&quot;&gt;\nhttp://imageshack.com/a/img854/9445/66os.jpg&lt;/a&gt;\n\nVideo\nID : 224 (0xE0)\nFormat : MPEG Video\nBit rate mode : Variable\nBit rate : 4 266 Kbps\nMaximum bit rate : 7 200 Kbps\nWidth : 720 pixels\nHeight : 480 pixels\nDisplay aspect ratio : 16:9\nFrame rate : 29.970 fps\nStandard : NTSC\nColor space : YUV\nChroma subsampling : 4:2:0\nBit depth : 8 bits\nScan type : Interlaced\nScan order : Bottom Field First\nCompression mode : Lossy\nBits/(Pixel*Frame) : 0.412\nTime code of first frame : 00:00:00:00\nTime code source : Group of pictures header\nStream size : 884 MiB (86%)\n\nAudio #1\nID : 189 (0xBD)-128 (0x80)\nFormat : AC-3\nFormat/Info : Audio Coding 3\nMode extension : CM (complete main)\nFormat settings, Endianness : Big\nMuxing mode : DVD-Video\nDuration : 28mn 58s\nBit rate mode : Constant\nBit rate : 192 Kbps\nChannel count : 2 channels\nChannel positions : Front: L R\nSampling rate : 48.0 KHz\nBit depth : 16 bits\nCompression mode : Lossy\nStream size : 39.8 MiB (4%)","torrent":{"xt":"urn:btih:d55eb6f628407d0d07083eed1e5c58b3fce0a15e","amp;dn":"Computer+Chess+2013+DVD-R+%28RLG%29","amp;tr":["udp%3A%2F%2Ftracker.openbittorrent.com%3A80","udp%3A%2F%2Fopen.demonii.com%3A1337","udp%3A%2F%2Ftracker.coppersurfer.tk%3A6969","udp%3A%2F%2Fexodus.desync.com%3A6969"],"infoHash":"d55eb6f628407d0d07083eed1e5c58b3fce0a15e","infoHashBuffer":{"type":"Buffer","data":[213,94,182,246,40,64,125,13,7,8,62,237,30,92,88,179,252,224,161,94]},"announce":[],"urlList":[]}}